<svg id="Layer_1" data-name="Layer 1" xmlns="http://www.w3.org/2000/svg" viewBox="0 0 24 24"><title>Untitled-1</title><g id="Comment-Icon"><path d="M12.12,1.27A10.37,10.37,0,0,1,19.51,4a8.59,8.59,0,0,1,2.65,6.21v.06l0,.09a7.6,7.6,0,0,1-.91,3.73c-.9,1.88-2.83,4.63-7,7.62V19.09l-1.2.08-.87,0c-6.48,0-10.36-4.57-10.36-9A8.41,8.41,0,0,1,4.58,4a10.92,10.92,0,0,1,7.54-2.77m0-1.13C5.2.14.69,5,.69,10.22S5.26,20.33,12.18,20.33c.32,0,.63,0,.94,0v3.57C24.25,16.8,23.29,10.24,23.29,10.24,23.29,5,19,.14,12.12.14Z"/><rect x="6.32" y="9.17" width="2.26" height="2.26"/><rect x="10.86" y="9.17" width="2.26" height="2.26"/><rect x="15.4" y="9.17" width="2.26" height="2.26"/></g></svg>