<svg id="Layer_1" data-name="Layer 1" xmlns="http://www.w3.org/2000/svg" viewBox="0 0 24 24"><defs><style>.cls-1{fill:#fff;}</style></defs><title>Icons</title><g id="Comment-Icon"><path d="M23.29,10.25C23.29,5,19,.15,12.12.15S.69,5,.69,10.22,5.26,20.33,12.18,20.33c.32,0,.63,0,.94,0v3.56C24.25,16.8,23.29,10.25,23.29,10.25Z"/><path d="M21.07,11.59a4.3,4.3,0,0,0,.09-1.17c0-4.24-3.44-8.16-9-8.16S2.91,6.16,2.91,10.4s3.68,7.88,9.27,7.88a11.11,11.11,0,0,0,3.26-.47v1.76a19.28,19.28,0,0,0,4.32-4.76A7.53,7.53,0,0,0,21.07,11.59Z"/><rect class="cls-1" x="6.32" y="9.17" width="2.26" height="2.26"/><rect class="cls-1" x="10.86" y="9.17" width="2.26" height="2.26"/><rect class="cls-1" x="15.4" y="9.17" width="2.26" height="2.26"/></g></svg>