<svg id="Layer_1" data-name="Layer 1" xmlns="http://www.w3.org/2000/svg" viewBox="0 0 24 24"><title>Untitled-1</title><path id="Heart-Icon" d="M17.23,3a4.7,4.7,0,0,1,3.63,1.87A4.6,4.6,0,0,1,22,8.56c-.38,3.37-3.94,7.69-10,12.21C5.9,16.25,2.34,11.93,2,8.56A4.6,4.6,0,0,1,3.14,4.83,4.7,4.7,0,0,1,6.77,3,7.59,7.59,0,0,1,11.22,4.9l.78.76.78-.76A7.67,7.67,0,0,1,17.23,3m0-1.13A8.6,8.6,0,0,0,12,4.09,8.6,8.6,0,0,0,6.77,1.83,5.79,5.79,0,0,0,2.29,4.09C-2.13,9.17,3.84,16.27,12,22.17c8.16-5.9,14.13-13,9.71-18.08a5.79,5.79,0,0,0-4.48-2.26Z"/></svg>