<svg width="64" height="14" viewBox="0 0 64 14" fill="none" xmlns="http://www.w3.org/2000/svg">
<path d="M2.89631 10.084C2.34431 10.084 1.84831 9.988 1.40831 9.796C0.976313 9.596 0.636313 9.324 0.388313 8.98C0.140313 8.628 0.0123125 8.224 0.00431255 7.768H1.16831C1.20831 8.16 1.36831 8.492 1.64831 8.764C1.93631 9.028 2.35231 9.16 2.89631 9.16C3.41631 9.16 3.82431 9.032 4.12031 8.776C4.42431 8.512 4.57631 8.176 4.57631 7.768C4.57631 7.448 4.48831 7.188 4.31231 6.988C4.13631 6.788 3.91631 6.636 3.65231 6.532C3.38831 6.428 3.03231 6.316 2.58431 6.196C2.03231 6.052 1.58831 5.908 1.25231 5.764C0.924313 5.62 0.640313 5.396 0.400313 5.092C0.168313 4.78 0.0523126 4.364 0.0523126 3.844C0.0523126 3.388 0.168313 2.984 0.400313 2.632C0.632313 2.28 0.956313 2.008 1.37231 1.816C1.79631 1.624 2.28031 1.528 2.82431 1.528C3.60831 1.528 4.24831 1.724 4.74431 2.116C5.24831 2.508 5.53231 3.028 5.59631 3.676H4.39631C4.35631 3.356 4.18831 3.076 3.89231 2.836C3.59631 2.588 3.20431 2.464 2.71631 2.464C2.26031 2.464 1.88831 2.584 1.60031 2.824C1.31231 3.056 1.16831 3.384 1.16831 3.808C1.16831 4.112 1.25231 4.36 1.42031 4.552C1.59631 4.744 1.80831 4.892 2.05631 4.996C2.31231 5.092 2.66831 5.204 3.12431 5.332C3.67631 5.484 4.12031 5.636 4.45631 5.788C4.79231 5.932 5.08031 6.16 5.32031 6.472C5.56031 6.776 5.68031 7.192 5.68031 7.72C5.68031 8.128 5.57231 8.512 5.35631 8.872C5.14031 9.232 4.82031 9.524 4.39631 9.748C3.97231 9.972 3.47231 10.084 2.89631 10.084ZM10.1553 10.108C9.53928 10.108 8.97928 9.968 8.47528 9.688C7.97928 9.408 7.58728 9.012 7.29928 8.5C7.01928 7.98 6.87928 7.38 6.87928 6.7C6.87928 6.028 7.02328 5.436 7.31128 4.924C7.60728 4.404 8.00728 4.008 8.51128 3.736C9.01528 3.456 9.57928 3.316 10.2033 3.316C10.8273 3.316 11.3913 3.456 11.8953 3.736C12.3993 4.008 12.7953 4.4 13.0833 4.912C13.3793 5.424 13.5273 6.02 13.5273 6.7C13.5273 7.38 13.3753 7.98 13.0713 8.5C12.7753 9.012 12.3713 9.408 11.8593 9.688C11.3473 9.968 10.7793 10.108 10.1553 10.108ZM10.1553 9.148C10.5473 9.148 10.9153 9.056 11.2593 8.872C11.6033 8.688 11.8793 8.412 12.0873 8.044C12.3033 7.676 12.4113 7.228 12.4113 6.7C12.4113 6.172 12.3073 5.724 12.0993 5.356C11.8913 4.988 11.6193 4.716 11.2833 4.54C10.9473 4.356 10.5833 4.264 10.1913 4.264C9.79128 4.264 9.42328 4.356 9.08728 4.54C8.75928 4.716 8.49528 4.988 8.29528 5.356C8.09528 5.724 7.99528 6.172 7.99528 6.7C7.99528 7.236 8.09128 7.688 8.28328 8.056C8.48328 8.424 8.74728 8.7 9.07528 8.884C9.40328 9.06 9.76328 9.148 10.1553 9.148ZM14.5551 6.7C14.5551 6.02 14.6911 5.428 14.9631 4.924C15.2351 4.412 15.6111 4.016 16.0911 3.736C16.5791 3.456 17.1351 3.316 17.7591 3.316C18.5671 3.316 19.2311 3.512 19.7511 3.904C20.2791 4.296 20.6271 4.84 20.7951 5.536H19.6191C19.5071 5.136 19.2871 4.82 18.9591 4.588C18.6391 4.356 18.2391 4.24 17.7591 4.24C17.1351 4.24 16.6311 4.456 16.2471 4.888C15.8631 5.312 15.6711 5.916 15.6711 6.7C15.6711 7.492 15.8631 8.104 16.2471 8.536C16.6311 8.968 17.1351 9.184 17.7591 9.184C18.2391 9.184 18.6391 9.072 18.9591 8.848C19.2791 8.624 19.4991 8.304 19.6191 7.888H20.7951C20.6191 8.56 20.2671 9.1 19.7391 9.508C19.2111 9.908 18.5511 10.108 17.7591 10.108C17.1351 10.108 16.5791 9.968 16.0911 9.688C15.6111 9.408 15.2351 9.012 14.9631 8.5C14.6911 7.988 14.5551 7.388 14.5551 6.7ZM22.8161 2.356C22.6081 2.356 22.4321 2.284 22.2881 2.14C22.1441 1.996 22.0721 1.82 22.0721 1.612C22.0721 1.404 22.1441 1.228 22.2881 1.084C22.4321 0.94 22.6081 0.868 22.8161 0.868C23.0161 0.868 23.1841 0.94 23.3201 1.084C23.4641 1.228 23.5361 1.404 23.5361 1.612C23.5361 1.82 23.4641 1.996 23.3201 2.14C23.1841 2.284 23.0161 2.356 22.8161 2.356ZM23.3441 3.424V10H22.2521V3.424H23.3441ZM24.7973 6.688C24.7973 6.016 24.9333 5.428 25.2053 4.924C25.4773 4.412 25.8493 4.016 26.3213 3.736C26.8013 3.456 27.3333 3.316 27.9173 3.316C28.4933 3.316 28.9933 3.44 29.4173 3.688C29.8413 3.936 30.1573 4.248 30.3653 4.624V3.424H31.4693V10H30.3653V8.776C30.1493 9.16 29.8253 9.48 29.3933 9.736C28.9693 9.984 28.4733 10.108 27.9053 10.108C27.3213 10.108 26.7933 9.964 26.3213 9.676C25.8493 9.388 25.4773 8.984 25.2053 8.464C24.9333 7.944 24.7973 7.352 24.7973 6.688ZM30.3653 6.7C30.3653 6.204 30.2653 5.772 30.0653 5.404C29.8653 5.036 29.5933 4.756 29.2493 4.564C28.9133 4.364 28.5413 4.264 28.1333 4.264C27.7253 4.264 27.3533 4.36 27.0173 4.552C26.6813 4.744 26.4133 5.024 26.2133 5.392C26.0133 5.76 25.9133 6.192 25.9133 6.688C25.9133 7.192 26.0133 7.632 26.2133 8.008C26.4133 8.376 26.6813 8.66 27.0173 8.86C27.3533 9.052 27.7253 9.148 28.1333 9.148C28.5413 9.148 28.9133 9.052 29.2493 8.86C29.5933 8.66 29.8653 8.376 30.0653 8.008C30.2653 7.632 30.3653 7.196 30.3653 6.7ZM34.4066 1.12V10H33.3146V1.12H34.4066ZM44.183 8.512H41.039L40.271 10H38.123L42.659 1.576H45.035L46.595 10H44.423L44.183 8.512ZM43.943 6.952L43.451 3.832L41.843 6.952H43.943ZM50.5826 4.252C50.8386 3.94 51.1586 3.688 51.5426 3.496C51.9346 3.304 52.3666 3.208 52.8386 3.208C53.5586 3.208 54.1386 3.444 54.5786 3.916C55.0266 4.388 55.2506 5.028 55.2506 5.836C55.2506 6.084 55.2266 6.352 55.1786 6.64C55.0586 7.328 54.8226 7.936 54.4706 8.464C54.1186 8.984 53.6946 9.388 53.1986 9.676C52.7026 9.956 52.1786 10.096 51.6266 10.096C51.1626 10.096 50.7706 10 50.4506 9.808C50.1306 9.616 49.8946 9.368 49.7426 9.064L49.0106 13.192H46.9586L48.6986 3.304H50.7506L50.5826 4.252ZM53.1026 6.64C53.1266 6.504 53.1386 6.38 53.1386 6.268C53.1386 5.868 53.0226 5.556 52.7906 5.332C52.5666 5.108 52.2786 4.996 51.9266 4.996C51.5186 4.996 51.1466 5.144 50.8106 5.44C50.4746 5.736 50.2586 6.14 50.1626 6.652C50.1386 6.796 50.1266 6.928 50.1266 7.048C50.1266 7.44 50.2386 7.748 50.4626 7.972C50.6866 8.196 50.9746 8.308 51.3266 8.308C51.7346 8.308 52.1066 8.16 52.4426 7.864C52.7866 7.56 53.0066 7.152 53.1026 6.64ZM58.7272 4.252C58.9832 3.94 59.3032 3.688 59.6872 3.496C60.0792 3.304 60.5112 3.208 60.9832 3.208C61.7032 3.208 62.2832 3.444 62.7232 3.916C63.1712 4.388 63.3952 5.028 63.3952 5.836C63.3952 6.084 63.3712 6.352 63.3232 6.64C63.2032 7.328 62.9672 7.936 62.6152 8.464C62.2632 8.984 61.8392 9.388 61.3432 9.676C60.8472 9.956 60.3232 10.096 59.7712 10.096C59.3072 10.096 58.9152 10 58.5952 9.808C58.2752 9.616 58.0392 9.368 57.8872 9.064L57.1552 13.192H55.1032L56.8432 3.304H58.8952L58.7272 4.252ZM61.2472 6.64C61.2712 6.504 61.2832 6.38 61.2832 6.268C61.2832 5.868 61.1672 5.556 60.9352 5.332C60.7112 5.108 60.4232 4.996 60.0712 4.996C59.6632 4.996 59.2912 5.144 58.9552 5.44C58.6192 5.736 58.4032 6.14 58.3072 6.652C58.2832 6.796 58.2712 6.928 58.2712 7.048C58.2712 7.44 58.3832 7.748 58.6072 7.972C58.8312 8.196 59.1192 8.308 59.4712 8.308C59.8792 8.308 60.2512 8.16 60.5872 7.864C60.9312 7.56 61.1512 7.152 61.2472 6.64Z" fill="black"/>
</svg>
