<svg id="Layer_1" data-name="Layer 1" xmlns="http://www.w3.org/2000/svg" viewBox="0 0 24 24"><defs><style>.cls-1{fill:#fff;}</style></defs><title>Icons</title><g id="Comment-Icon"><path d="M23.29,10.24C23.29,5,19,.14,12.12.14S.69,5,.69,10.22,5.26,20.33,12.18,20.33c.32,0,.63,0,.94,0v3.57C24.25,16.8,23.29,10.24,23.29,10.24Z"/><path class="cls-1" d="M21.07,11.59a4.37,4.37,0,0,0,.09-1.18c0-4.24-3.44-8.15-9-8.15S2.91,6.16,2.91,10.4s3.68,7.87,9.27,7.87a11.12,11.12,0,0,0,3.26-.46v1.76a19.48,19.48,0,0,0,4.32-4.77A7.49,7.49,0,0,0,21.07,11.59Z"/><rect x="6.32" y="9.17" width="2.26" height="2.26"/><rect x="10.86" y="9.17" width="2.26" height="2.26"/><rect x="15.4" y="9.17" width="2.26" height="2.26"/></g></svg>