<svg id="Layer_1" data-name="Layer 1" xmlns="http://www.w3.org/2000/svg" viewBox="0 0 24 24"><title>Icons</title><path id="Heart-Icon" d="M17.23,3.81a3.89,3.89,0,0,1,3,1.58,3.75,3.75,0,0,1,1,3.07c-.34,3-3.68,7.06-9.2,11.25C6.48,15.52,3.14,11.46,2.8,8.46a3.75,3.75,0,0,1,1-3.07,3.89,3.89,0,0,1,3-1.58,6.64,6.64,0,0,1,3.86,1.71L12,6.83l1.37-1.31a6.73,6.73,0,0,1,3.86-1.71m0-2A8.6,8.6,0,0,0,12,4.09,8.6,8.6,0,0,0,6.77,1.83,5.79,5.79,0,0,0,2.29,4.09C-2.13,9.17,3.84,16.27,12,22.17c8.16-5.9,14.13-13,9.71-18.08a5.79,5.79,0,0,0-4.48-2.26Z"/></svg>